<mxfile host="Electron" modified="2023-05-29T16:03:06.608Z" agent="Mozilla/5.0 (Windows NT 10.0; Win64; x64) AppleWebKit/537.36 (KHTML, like Gecko) draw.io/21.2.8 Chrome/112.0.5615.165 Electron/24.2.0 Safari/537.36" etag="qjmDTpiGhZSuGcIHBKKU" version="21.2.8" type="device">
  <diagram name="Страница 1" id="WuwfoPtsuufKDQ36EhCw">
    <mxGraphModel dx="938" dy="647" grid="1" gridSize="10" guides="1" tooltips="1" connect="1" arrows="1" fold="1" page="1" pageScale="1" pageWidth="827" pageHeight="1169" math="0" shadow="0">
      <root>
        <mxCell id="0" />
        <mxCell id="1" parent="0" />
        <mxCell id="WXq1KYLdkgnx9V1S3kLd-5" style="edgeStyle=orthogonalEdgeStyle;rounded=0;orthogonalLoop=1;jettySize=auto;html=1;exitX=0.5;exitY=1;exitDx=0;exitDy=0;entryX=0.5;entryY=0;entryDx=0;entryDy=0;" edge="1" parent="1" source="WXq1KYLdkgnx9V1S3kLd-1" target="WXq1KYLdkgnx9V1S3kLd-2">
          <mxGeometry relative="1" as="geometry" />
        </mxCell>
        <mxCell id="WXq1KYLdkgnx9V1S3kLd-1" value="begin" style="rounded=1;whiteSpace=wrap;html=1;arcSize=50;" vertex="1" parent="1">
          <mxGeometry x="250" y="20" width="90" height="30" as="geometry" />
        </mxCell>
        <mxCell id="WXq1KYLdkgnx9V1S3kLd-4" style="edgeStyle=orthogonalEdgeStyle;rounded=0;orthogonalLoop=1;jettySize=auto;html=1;exitX=0.5;exitY=1;exitDx=0;exitDy=0;entryX=0.5;entryY=0;entryDx=0;entryDy=0;" edge="1" parent="1" source="WXq1KYLdkgnx9V1S3kLd-2" target="WXq1KYLdkgnx9V1S3kLd-3">
          <mxGeometry relative="1" as="geometry" />
        </mxCell>
        <mxCell id="WXq1KYLdkgnx9V1S3kLd-2" value="array = [&quot;Help&quot;, &quot;me&quot;, &quot;finish&quot;, &quot;this&quot;, &quot;task&quot;, &quot;right&quot;, &quot;now&quot;]&lt;br&gt;counter = 0&lt;br&gt;index = 0&lt;br&gt;maxIndex = array.Lenght - 1" style="rounded=0;whiteSpace=wrap;html=1;" vertex="1" parent="1">
          <mxGeometry x="127.5" y="70" width="335" height="90" as="geometry" />
        </mxCell>
        <mxCell id="WXq1KYLdkgnx9V1S3kLd-3" value="index &amp;lt; maxIndex" style="rhombus;whiteSpace=wrap;html=1;" vertex="1" parent="1">
          <mxGeometry x="217.5" y="200" width="155" height="60" as="geometry" />
        </mxCell>
      </root>
    </mxGraphModel>
  </diagram>
</mxfile>
